<?xml version="1.0" standalone="no"?><!DOCTYPE svg PUBLIC "-//W3C//DTD SVG 1.1//EN" "http://www.w3.org/Graphics/SVG/1.1/DTD/svg11.dtd"><svg t="1575485389864" class="icon" viewBox="0 0 1024 1024" version="1.1" xmlns="http://www.w3.org/2000/svg" p-id="1694" xmlns:xlink="http://www.w3.org/1999/xlink" width="200" height="200"><defs><style type="text/css"></style></defs><path d="M192.64 828.608l831.36 0 0 51.072-831.36 0 0-51.072Z" p-id="1695" fill="#ffffff"></path><path d="M192.64 600.896l831.36 0 0 50.496-831.36 0 0-50.496Z" p-id="1696" fill="#ffffff"></path><path d="M192.64 372.608l831.36 0 0 50.496-831.36 0 0-50.496Z" p-id="1697" fill="#ffffff"></path><path d="M192.64 144.32l831.36 0 0 50.56-831.36 0 0-50.56Z" p-id="1698" fill="#ffffff"></path><path d="M0 828.608l119.36 0 0 51.072-119.36 0 0-51.072Z" p-id="1699" fill="#ffffff"></path><path d="M0 600.896l119.36 0 0 50.496-119.36 0 0-50.496Z" p-id="1700" fill="#ffffff"></path><path d="M0 372.608l119.36 0 0 50.496-119.36 0 0-50.496Z" p-id="1701" fill="#ffffff"></path><path d="M0 144.32l119.36 0 0 50.56-119.36 0 0-50.56Z" p-id="1702" fill="#ffffff"></path></svg>