<?xml version="1.0" standalone="no"?><!DOCTYPE svg PUBLIC "-//W3C//DTD SVG 1.1//EN" "http://www.w3.org/Graphics/SVG/1.1/DTD/svg11.dtd"><svg t="1575486205388" class="icon" viewBox="0 0 1024 1024" version="1.1" xmlns="http://www.w3.org/2000/svg" p-id="6781" xmlns:xlink="http://www.w3.org/1999/xlink" width="200" height="200"><defs><style type="text/css"></style></defs><path d="M536.32 695.466667a27.306667 27.306667 0 0 0-6.4-5.546667l-7.253333-3.84-8.106667-3.413333a42.666667 42.666667 0 0 0-38.4 11.946666 42.666667 42.666667 0 0 0-9.386667 13.653334 42.666667 42.666667 0 0 0-2.986666 16.64 42.666667 42.666667 0 0 0 12.373333 29.866666 42.666667 42.666667 0 0 0 13.653333 9.386667 42.666667 42.666667 0 0 0 16.64 2.986667 42.666667 42.666667 0 0 0 16.213334-2.986667 42.666667 42.666667 0 0 0 13.653333-9.386667 42.666667 42.666667 0 0 0 12.8-29.866666 42.666667 42.666667 0 0 0-3.413333-16.64 37.12 37.12 0 0 0-9.386667-12.8z m-29.866667-311.466667a128 128 0 0 0-110.933333 64 42.666667 42.666667 0 1 0 73.813333 42.666667 42.666667 42.666667 0 0 1 79.786667 21.333333 42.666667 42.666667 0 0 1-42.666667 42.666667 42.666667 42.666667 0 1 0 0 85.333333 128 128 0 0 0 0-256zM810.666667 234.666667h-267.946667l-13.653333-42.666667a128 128 0 0 0-121.173334-85.333333H213.333333a128 128 0 0 0-128 128v554.666666a128 128 0 0 0 128 128h597.333334a128 128 0 0 0 128-128v-426.666666a128 128 0 0 0-128-128z m42.666666 554.666666a42.666667 42.666667 0 0 1-42.666666 42.666667H213.333333a42.666667 42.666667 0 0 1-42.666666-42.666667v-554.666666a42.666667 42.666667 0 0 1 42.666666-42.666667h194.56a42.666667 42.666667 0 0 1 40.533334 29.013333l23.04 69.973334a42.666667 42.666667 0 0 0 40.533333 29.013333h298.666667a42.666667 42.666667 0 0 1 42.666666 42.666667z" p-id="6782" fill="#ffffff"></path></svg>